<svg width="1440" height="1024" viewBox="0 0 1440 1024" fill="none" xmlns="http://www.w3.org/2000/svg">
<path d="M0 694.556L830 1066.43M0 677.165L830 999.073M0 659.774L830 937.151M0 642.382L830 879.434M0 624.991L830 824.992M0 607.6L830 773.107M0 590.208L830 723.203M0 572.817L830 674.808M0 555.426L830 627.523M0 538.035L830 580.997M0 520.643L830 534.915M0 503.252L830 488.98M0 485.861L830 442.898M0 468.469L830 396.373M0 451.078L830 349.087M0 433.687L830 300.692M0 416.295L830 250.788M0 398.904L830 198.903M0 381.513L830 144.462M0 364.121L830 86.7439M0 346.73L830 24.8218M0 329.339L830 -42.5338M0.00747223 711.951V311.944M0.0387543 711.968V311.928M0.138426 712.019V311.876M0.391469 712.15V311.745M0.942514 712.435V311.461M2.01763 712.99V310.905M3.94825 713.988V309.907M7.19829 715.668V308.227M12.3928 718.352V305.543M20.3498 722.464V301.431M32.1149 728.545V295.35M48.9958 737.269V286.626M72.6021 749.469V274.426M104.885 766.153V257.743M148.179 788.527V235.368M205.25 818.021V205.874M279.335 856.309V167.586M374.197 905.334V118.561M494.173 967.338V56.5566M644.227 1044.89V-20.9915M1657 711.948L827 1140.89V-117L1657 311.948M1657 694.556L827 1066.43M1657 677.165L827 999.073M1657 659.774L827 937.151M1657 642.382L827 879.434M1657 624.991L827 824.992M1657 607.6L827 773.107M1657 590.208L827 723.203M1657 572.817L827 674.808M1657 555.426L827 627.523M1657 538.035L827 580.997M1657 520.643L827 534.915M1657 503.252L827 488.98M1657 485.861L827 442.898M1657 468.469L827 396.373M1657 451.078L827 349.087M1657 433.687L827 300.692M1657 416.295L827 250.788M1657 398.904L827 198.903M1657 381.513L827 144.462M1657 364.121L827 86.7439M1657 346.73L827 24.8218M1657 329.339L827 -42.5338M827 711.948V311.948M827 711.951V311.944M827 711.968V311.928M827 712.019V311.876M827 712.15V311.745M827 712.435V311.461M827 712.99V310.905M827 713.988V309.907M827 715.668V308.227M827 718.352V305.543M827 722.464V301.431M827 728.545V295.35M827 737.269V286.626M827 749.469V274.426M827 766.153V257.743M827 788.527V235.368M827 818.021V205.874M827 856.309V167.586M827 905.334V118.561M827 967.338V56.5566M827 1044.89V-20.9915M0 711.948L830 1140.89V-117L0 311.948L0 711.948Z" stroke="#B3B3B3" stroke-opacity="0.2"/>
</svg>
